<mxfile host="app.diagrams.net" modified="2021-02-20T04:34:07.912Z" agent="5.0 (Windows NT 10.0; Win64; x64) AppleWebKit/537.36 (KHTML, like Gecko) Chrome/88.0.4324.182 Safari/537.36" etag="_XyaDpLlp5wtEEyc_rPt" version="14.4.2" type="github">
  <diagram id="QEby-j8M3UJfd-EspP2Z" name="Page-1">
    <mxGraphModel dx="1178" dy="609" grid="1" gridSize="10" guides="1" tooltips="1" connect="1" arrows="1" fold="1" page="1" pageScale="1" pageWidth="850" pageHeight="1100" math="0" shadow="0">
      <root>
        <mxCell id="0" />
        <mxCell id="1" parent="0" />
        <mxCell id="ge0FrqsHW6P72eZqB0jV-13" value="" style="whiteSpace=wrap;html=1;aspect=fixed;fillColor=#f5f5f5;strokeColor=#666666;fontColor=#333333;" vertex="1" parent="1">
          <mxGeometry x="560" y="160" width="210" height="210" as="geometry" />
        </mxCell>
        <mxCell id="ge0FrqsHW6P72eZqB0jV-7" value="" style="whiteSpace=wrap;html=1;aspect=fixed;fillColor=#f5f5f5;strokeColor=#666666;fontColor=#333333;" vertex="1" parent="1">
          <mxGeometry x="310" y="160" width="210" height="210" as="geometry" />
        </mxCell>
        <mxCell id="ge0FrqsHW6P72eZqB0jV-22" style="edgeStyle=orthogonalEdgeStyle;curved=1;rounded=0;orthogonalLoop=1;jettySize=auto;html=1;entryX=0;entryY=0.5;entryDx=0;entryDy=0;" edge="1" parent="1" target="ge0FrqsHW6P72eZqB0jV-11">
          <mxGeometry relative="1" as="geometry">
            <mxPoint x="300" y="295" as="sourcePoint" />
            <mxPoint x="310" y="294.94" as="targetPoint" />
            <Array as="points" />
          </mxGeometry>
        </mxCell>
        <mxCell id="ge0FrqsHW6P72eZqB0jV-40" style="edgeStyle=orthogonalEdgeStyle;curved=1;rounded=0;orthogonalLoop=1;jettySize=auto;html=1;exitX=1;exitY=1;exitDx=0;exitDy=0;endArrow=none;endFill=0;" edge="1" parent="1" source="ge0FrqsHW6P72eZqB0jV-1">
          <mxGeometry relative="1" as="geometry">
            <mxPoint x="300" y="295" as="targetPoint" />
            <Array as="points">
              <mxPoint x="280" y="370" />
              <mxPoint x="280" y="295" />
            </Array>
          </mxGeometry>
        </mxCell>
        <mxCell id="ge0FrqsHW6P72eZqB0jV-41" style="edgeStyle=orthogonalEdgeStyle;curved=1;rounded=0;orthogonalLoop=1;jettySize=auto;html=1;exitX=1;exitY=0;exitDx=0;exitDy=0;endArrow=none;endFill=0;" edge="1" parent="1" source="ge0FrqsHW6P72eZqB0jV-1">
          <mxGeometry relative="1" as="geometry">
            <mxPoint x="300" y="295" as="targetPoint" />
            <Array as="points">
              <mxPoint x="280" y="160" />
              <mxPoint x="280" y="295" />
            </Array>
          </mxGeometry>
        </mxCell>
        <mxCell id="ge0FrqsHW6P72eZqB0jV-1" value="" style="whiteSpace=wrap;html=1;aspect=fixed;fillColor=#f5f5f5;strokeColor=#666666;fontColor=#333333;" vertex="1" parent="1">
          <mxGeometry x="60" y="160" width="210" height="210" as="geometry" />
        </mxCell>
        <mxCell id="ge0FrqsHW6P72eZqB0jV-2" value="&lt;font style=&quot;font-size: 18px&quot;&gt;Block 1543&lt;/font&gt;" style="text;html=1;resizable=0;autosize=1;align=center;verticalAlign=middle;points=[];fillColor=none;strokeColor=none;rounded=0;" vertex="1" parent="1">
          <mxGeometry x="110" y="170" width="100" height="20" as="geometry" />
        </mxCell>
        <mxCell id="ge0FrqsHW6P72eZqB0jV-3" value="Time: 167267892" style="rounded=1;whiteSpace=wrap;html=1;fillColor=#d5e8d4;strokeColor=#82b366;" vertex="1" parent="1">
          <mxGeometry x="75" y="200" width="170" height="30" as="geometry" />
        </mxCell>
        <mxCell id="ge0FrqsHW6P72eZqB0jV-4" value="Nonce: 816851352" style="rounded=1;whiteSpace=wrap;html=1;fillColor=#d5e8d4;strokeColor=#82b366;" vertex="1" parent="1">
          <mxGeometry x="75" y="240" width="170" height="30" as="geometry" />
        </mxCell>
        <mxCell id="ge0FrqsHW6P72eZqB0jV-5" value="Prevhash:&amp;nbsp;e3a470a1a403" style="rounded=1;whiteSpace=wrap;html=1;fillColor=#d5e8d4;strokeColor=#82b366;" vertex="1" parent="1">
          <mxGeometry x="75" y="280" width="170" height="30" as="geometry" />
        </mxCell>
        <mxCell id="ge0FrqsHW6P72eZqB0jV-6" value="&amp;lt; Transactions &amp;gt;" style="rounded=1;whiteSpace=wrap;html=1;fillColor=#d5e8d4;strokeColor=#82b366;" vertex="1" parent="1">
          <mxGeometry x="75" y="320" width="170" height="30" as="geometry" />
        </mxCell>
        <mxCell id="ge0FrqsHW6P72eZqB0jV-8" value="&lt;font style=&quot;font-size: 18px&quot;&gt;Block 1544&lt;/font&gt;" style="text;html=1;resizable=0;autosize=1;align=center;verticalAlign=middle;points=[];fillColor=none;strokeColor=none;rounded=0;" vertex="1" parent="1">
          <mxGeometry x="360" y="170" width="100" height="20" as="geometry" />
        </mxCell>
        <mxCell id="ge0FrqsHW6P72eZqB0jV-9" value="Time: 167273517" style="rounded=1;whiteSpace=wrap;html=1;fillColor=#d5e8d4;strokeColor=#82b366;" vertex="1" parent="1">
          <mxGeometry x="325" y="200" width="170" height="30" as="geometry" />
        </mxCell>
        <mxCell id="ge0FrqsHW6P72eZqB0jV-10" value="Nonce: 678105347" style="rounded=1;whiteSpace=wrap;html=1;fillColor=#d5e8d4;strokeColor=#82b366;" vertex="1" parent="1">
          <mxGeometry x="325" y="240" width="170" height="30" as="geometry" />
        </mxCell>
        <mxCell id="ge0FrqsHW6P72eZqB0jV-11" value="Prevhash:&amp;nbsp;8bad9e89e12f" style="rounded=1;whiteSpace=wrap;html=1;fillColor=#d5e8d4;strokeColor=#82b366;" vertex="1" parent="1">
          <mxGeometry x="325" y="280" width="170" height="30" as="geometry" />
        </mxCell>
        <mxCell id="ge0FrqsHW6P72eZqB0jV-12" value="&amp;lt; Transactions &amp;gt;" style="rounded=1;whiteSpace=wrap;html=1;fillColor=#d5e8d4;strokeColor=#82b366;" vertex="1" parent="1">
          <mxGeometry x="325" y="320" width="170" height="30" as="geometry" />
        </mxCell>
        <mxCell id="ge0FrqsHW6P72eZqB0jV-14" value="&lt;font style=&quot;font-size: 18px&quot;&gt;Block 1545&lt;/font&gt;" style="text;html=1;resizable=0;autosize=1;align=center;verticalAlign=middle;points=[];fillColor=none;strokeColor=none;rounded=0;" vertex="1" parent="1">
          <mxGeometry x="610" y="170" width="100" height="20" as="geometry" />
        </mxCell>
        <mxCell id="ge0FrqsHW6P72eZqB0jV-15" value="Time: 167287520" style="rounded=1;whiteSpace=wrap;html=1;fillColor=#d5e8d4;strokeColor=#82b366;" vertex="1" parent="1">
          <mxGeometry x="575" y="200" width="170" height="30" as="geometry" />
        </mxCell>
        <mxCell id="ge0FrqsHW6P72eZqB0jV-16" value="Nonce: 756051631" style="rounded=1;whiteSpace=wrap;html=1;fillColor=#d5e8d4;strokeColor=#82b366;" vertex="1" parent="1">
          <mxGeometry x="575" y="240" width="170" height="30" as="geometry" />
        </mxCell>
        <mxCell id="ge0FrqsHW6P72eZqB0jV-17" value="Prevhash:&amp;nbsp;fc3323574d78" style="rounded=1;whiteSpace=wrap;html=1;fillColor=#d5e8d4;strokeColor=#82b366;" vertex="1" parent="1">
          <mxGeometry x="575" y="280" width="170" height="30" as="geometry" />
        </mxCell>
        <mxCell id="ge0FrqsHW6P72eZqB0jV-18" value="&amp;lt; Transactions &amp;gt;" style="rounded=1;whiteSpace=wrap;html=1;fillColor=#d5e8d4;strokeColor=#82b366;" vertex="1" parent="1">
          <mxGeometry x="575" y="320" width="170" height="30" as="geometry" />
        </mxCell>
        <mxCell id="ge0FrqsHW6P72eZqB0jV-21" value="" style="endArrow=classic;html=1;entryX=0;entryY=0.5;entryDx=0;entryDy=0;" edge="1" parent="1" target="ge0FrqsHW6P72eZqB0jV-5">
          <mxGeometry width="50" height="50" relative="1" as="geometry">
            <mxPoint x="40" y="295" as="sourcePoint" />
            <mxPoint x="-10" y="260" as="targetPoint" />
          </mxGeometry>
        </mxCell>
        <mxCell id="ge0FrqsHW6P72eZqB0jV-45" style="edgeStyle=orthogonalEdgeStyle;curved=1;rounded=0;orthogonalLoop=1;jettySize=auto;html=1;entryX=0;entryY=0.5;entryDx=0;entryDy=0;" edge="1" parent="1">
          <mxGeometry relative="1" as="geometry">
            <mxPoint x="550" y="295" as="sourcePoint" />
            <mxPoint x="575" y="295" as="targetPoint" />
            <Array as="points" />
          </mxGeometry>
        </mxCell>
        <mxCell id="ge0FrqsHW6P72eZqB0jV-46" style="edgeStyle=orthogonalEdgeStyle;curved=1;rounded=0;orthogonalLoop=1;jettySize=auto;html=1;exitX=1;exitY=1;exitDx=0;exitDy=0;endArrow=none;endFill=0;" edge="1" parent="1">
          <mxGeometry relative="1" as="geometry">
            <mxPoint x="520" y="370" as="sourcePoint" />
            <mxPoint x="550" y="295" as="targetPoint" />
            <Array as="points">
              <mxPoint x="530" y="370" />
              <mxPoint x="530" y="295" />
            </Array>
          </mxGeometry>
        </mxCell>
        <mxCell id="ge0FrqsHW6P72eZqB0jV-47" style="edgeStyle=orthogonalEdgeStyle;curved=1;rounded=0;orthogonalLoop=1;jettySize=auto;html=1;exitX=1;exitY=0;exitDx=0;exitDy=0;endArrow=none;endFill=0;" edge="1" parent="1">
          <mxGeometry relative="1" as="geometry">
            <mxPoint x="550" y="295" as="targetPoint" />
            <mxPoint x="520" y="160" as="sourcePoint" />
            <Array as="points">
              <mxPoint x="530" y="160" />
              <mxPoint x="530" y="295" />
            </Array>
          </mxGeometry>
        </mxCell>
        <mxCell id="ge0FrqsHW6P72eZqB0jV-48" style="edgeStyle=orthogonalEdgeStyle;curved=1;rounded=0;orthogonalLoop=1;jettySize=auto;html=1;" edge="1" parent="1">
          <mxGeometry relative="1" as="geometry">
            <mxPoint x="800" y="295" as="sourcePoint" />
            <mxPoint x="810" y="295" as="targetPoint" />
            <Array as="points" />
          </mxGeometry>
        </mxCell>
        <mxCell id="ge0FrqsHW6P72eZqB0jV-49" style="edgeStyle=orthogonalEdgeStyle;curved=1;rounded=0;orthogonalLoop=1;jettySize=auto;html=1;exitX=1;exitY=1;exitDx=0;exitDy=0;endArrow=none;endFill=0;" edge="1" parent="1">
          <mxGeometry relative="1" as="geometry">
            <mxPoint x="770" y="370" as="sourcePoint" />
            <mxPoint x="800" y="295" as="targetPoint" />
            <Array as="points">
              <mxPoint x="780" y="370" />
              <mxPoint x="780" y="295" />
            </Array>
          </mxGeometry>
        </mxCell>
        <mxCell id="ge0FrqsHW6P72eZqB0jV-50" style="edgeStyle=orthogonalEdgeStyle;curved=1;rounded=0;orthogonalLoop=1;jettySize=auto;html=1;exitX=1;exitY=0;exitDx=0;exitDy=0;endArrow=none;endFill=0;" edge="1" parent="1">
          <mxGeometry relative="1" as="geometry">
            <mxPoint x="800" y="295" as="targetPoint" />
            <mxPoint x="770" y="160" as="sourcePoint" />
            <Array as="points">
              <mxPoint x="780" y="160" />
              <mxPoint x="780" y="295" />
            </Array>
          </mxGeometry>
        </mxCell>
      </root>
    </mxGraphModel>
  </diagram>
</mxfile>
